<?xml version="1.0" standalone="no"?>
<!DOCTYPE svg PUBLIC "-//W3C//DTD SVG 20010904//EN"
 "http://www.w3.org/TR/2001/REC-SVG-20010904/DTD/svg10.dtd">
<svg version="1.0" xmlns="http://www.w3.org/2000/svg"
 width="16.000000pt" height="16.000000pt" viewBox="0 0 16.000000 16.000000"
 preserveAspectRatio="xMidYMid meet">

<g transform="translate(0.000000,16.000000) scale(0.100000,-0.100000)"
fill="#000000" stroke="none">
<path d="M40 80 c0 -40 4 -70 10 -70 6 0 10 10 10 22 l0 21 25 -23 c28 -26 34
-17 8 12 -15 17 -15 19 2 38 22 24 9 27 -17 3 -17 -15 -18 -14 -18 25 0 23 -4
42 -10 42 -6 0 -10 -30 -10 -70z"/>
</g>
</svg>
